<?xml version="1.0" standalone="no"?>
<!DOCTYPE svg PUBLIC "-//W3C//DTD SVG 20010904//EN"
 "http://www.w3.org/TR/2001/REC-SVG-20010904/DTD/svg10.dtd">
<svg version="1.0" xmlns="http://www.w3.org/2000/svg"
 width="480.000000pt" height="414.000000pt" viewBox="0 0 480.000000 414.000000"
 preserveAspectRatio="xMidYMid meet">

<g transform="translate(0.000000,414.000000) scale(0.100000,-0.100000)"
fill="#000000" stroke="none">
<path d="M2346 4095 c-95 -34 -228 -111 -281 -163 -81 -79 -75 -142 31 -360
58 -119 77 -168 78 -202 1 -40 -2 -45 -27 -54 -58 -21 -90 31 -113 185 -8 57
-17 105 -19 107 -2 2 -13 1 -24 -3 -15 -4 -21 -15 -21 -35 0 -41 -31 -102 -48
-95 -7 3 -20 5 -27 5 -8 0 -30 14 -49 31 -69 60 -76 -4 -15 -131 l41 -85 -18
-34 c-22 -41 -123 -101 -170 -101 -19 0 -38 8 -51 23 -38 41 -46 67 -39 126 7
56 7 56 -13 36 -31 -31 -38 -141 -13 -197 26 -58 52 -79 106 -85 65 -8 128 27
182 99 39 53 49 81 69 186 5 25 12 32 30 32 29 0 41 -16 49 -67 15 -97 61
-143 143 -143 50 0 77 27 93 92 11 43 15 47 36 42 20 -5 24 -2 25 17 5 133 4
210 -4 298 -8 78 -7 120 3 168 10 50 10 70 0 92 -12 30 -35 46 -51 36 -33 -21
-39 -197 -14 -392 17 -137 16 -199 -2 -103 -6 30 -26 93 -43 140 -47 122 -90
261 -90 286 0 35 37 71 103 103 69 32 194 61 266 61 99 0 120 -61 51 -148 -74
-95 -131 -187 -146 -238 -15 -53 -23 -149 -13 -159 15 -14 39 10 44 43 12 76
36 139 79 207 127 197 121 184 124 266 4 74 3 76 -28 107 -29 30 -36 32 -98
31 -43 0 -91 -9 -136 -24z"/>
<path d="M2691 3991 c-8 -13 -5 -34 9 -74 39 -112 36 -201 -6 -166 -23 19 -44
-9 -46 -63 -3 -57 22 -98 60 -99 15 -1 42 -2 59 -4 71 -6 105 74 68 162 -13
30 -17 33 -30 23 -8 -7 -15 -26 -15 -42 0 -16 -4 -27 -9 -24 -4 3 -10 52 -13
109 -4 74 -12 117 -26 150 -22 51 -36 58 -51 28z"/>
<path d="M1765 3907 c-164 -59 -350 -164 -539 -306 -96 -72 -195 -154 -220
-182 -45 -50 -46 -52 -29 -72 18 -20 17 -20 -10 -13 -15 3 -36 2 -46 -3 -26
-15 -94 -119 -87 -136 2 -7 31 -21 63 -30 32 -9 78 -23 103 -31 25 -8 51 -16
58 -17 16 -2 64 108 60 138 -2 14 3 20 16 20 14 0 45 37 102 120 141 204 341
378 556 483 140 68 126 83 -27 29z m-777 -620 c2 -10 -8 -36 -23 -57 -27 -39
-28 -39 -56 -24 -34 17 -34 16 -14 54 26 50 86 67 93 27z m100 -34 c16 -22 16
-22 -8 -60 -22 -37 -37 -40 -80 -18 -36 18 -36 23 -8 70 19 33 24 36 52 31 17
-4 37 -14 44 -23z"/>
<path d="M3008 3917 c6 -7 53 -35 104 -62 219 -115 380 -256 525 -461 48 -68
94 -124 103 -124 21 0 156 65 164 79 8 12 -115 140 -199 208 -161 131 -468
305 -619 352 -80 25 -93 26 -78 8z"/>
<path d="M1848 3820 c-22 -13 -147 -174 -170 -219 -23 -44 -23 -104 -2 -122
13 -11 15 -25 10 -74 -3 -33 -9 -72 -12 -87 -4 -16 -2 -28 4 -28 11 0 22 27
48 118 15 54 16 68 5 95 -26 64 -25 69 44 147 62 71 84 107 100 158 7 24 0 27
-27 12z"/>
<path d="M2945 3740 c-23 -45 -19 -67 14 -78 21 -7 45 -34 80 -87 28 -42 51
-78 51 -80 0 -2 18 -30 39 -62 95 -143 117 -268 64 -364 -14 -27 -24 -52 -21
-55 11 -11 49 21 78 66 84 131 51 262 -141 547 -99 146 -134 170 -164 113z"/>
<path d="M2537 3722 c-9 -10 -20 -34 -23 -53 -4 -19 -20 -49 -37 -66 -25 -26
-27 -33 -13 -33 67 0 160 114 126 155 -17 20 -33 19 -53 -3z"/>
<path d="M2923 3589 c-31 -31 3 -152 93 -331 48 -96 52 -110 43 -138 -10 -28
-14 -30 -64 -30 -100 0 -141 64 -170 264 -19 137 -39 199 -64 194 -30 -6 -37
-90 -16 -187 30 -137 31 -199 3 -240 -36 -54 -121 -65 -177 -23 -44 33 -56 92
-43 212 16 146 16 240 -1 240 -15 0 -37 -41 -37 -69 0 -37 -52 -119 -121 -188
-74 -75 -88 -105 -89 -186 0 -55 43 -116 83 -117 10 0 40 11 67 25 l49 25 15
-29 c31 -58 150 -90 215 -57 15 8 42 31 59 50 17 20 38 36 46 36 8 0 37 -16
66 -35 62 -42 88 -49 137 -40 47 9 88 51 103 105 20 74 -18 235 -92 386 -49
102 -88 151 -105 133z m-471 -386 c-5 -69 -24 -97 -62 -88 -30 8 -50 23 -50
40 0 19 80 105 98 105 14 0 16 -9 14 -57z"/>
<path d="M3880 3303 c-70 -22 -115 -49 -118 -71 -4 -28 33 -111 53 -118 24 -9
235 60 235 77 0 4 -20 34 -45 68 -48 65 -53 67 -125 44z m94 -39 c32 -39 29
-60 -10 -70 -21 -6 -31 -2 -46 16 -26 32 -34 70 -17 81 25 15 43 8 73 -27z
m-84 -26 c29 -48 25 -63 -19 -80 -38 -15 -40 -15 -59 6 -40 43 -37 77 8 95 40
16 49 13 70 -21z"/>
<path d="M1929 3115 c-15 -33 -17 -50 -10 -64 11 -20 69 -51 95 -51 21 0 36
31 36 73 0 39 -10 50 -64 72 l-37 16 -20 -46z"/>
<path d="M764 3122 c-29 -19 -114 -195 -101 -209 10 -9 88 -22 140 -23 26 0
77 -7 113 -16 36 -9 67 -14 70 -12 7 8 44 146 44 168 0 29 -42 51 -138 72 -48
10 -94 20 -102 23 -8 2 -20 1 -26 -3z m84 -54 c5 -23 -38 -128 -52 -128 -28 0
-76 23 -76 36 0 24 38 92 61 108 24 17 62 8 67 -16z m101 -10 c28 -6 51 -16
51 -21 0 -5 -7 -34 -16 -64 l-16 -55 -61 7 c-34 4 -65 9 -69 11 -6 4 23 101
37 124 8 13 13 13 74 -2z"/>
<path d="M3991 3089 c-100 -19 -141 -39 -141 -67 0 -14 27 -110 45 -159 3 -9
16 -9 54 2 43 13 100 20 216 24 63 3 64 11 10 121 -56 114 -41 107 -184 79z
m139 -56 c17 -26 30 -52 30 -59 0 -18 -22 -32 -59 -36 -33 -3 -34 -1 -54 53
-24 68 -19 89 23 89 25 0 35 -8 60 -47z m-110 -15 c11 -24 20 -51 20 -61 0
-19 -40 -40 -97 -50 -31 -6 -32 -6 -44 48 -6 29 -9 61 -6 69 8 20 42 34 80 35
23 1 31 -6 47 -41z"/>
<path d="M1483 2923 c-21 -39 -41 -95 -68 -193 -37 -132 -29 -397 16 -567 19
-70 105 -225 185 -335 65 -88 185 -190 305 -258 269 -153 566 -179 873 -76
199 68 409 235 528 422 83 131 119 222 148 370 35 184 25 343 -35 534 -32 101
-49 130 -76 130 -11 0 -68 -20 -127 -44 -122 -50 -317 -96 -522 -122 -335 -42
-663 -5 -1005 112 -216 74 -197 72 -222 27z m172 -77 c64 -25 118 -46 120 -48
5 -5 -23 -247 -30 -258 -4 -6 -68 -10 -156 -10 l-149 0 0 24 c0 85 67 336 90
336 5 0 61 -20 125 -44z m1733 -66 c36 -109 58 -220 49 -244 -5 -13 -25 -16
-126 -16 -139 0 -126 -12 -141 136 -5 54 -12 113 -15 129 l-7 30 99 36 c54 20
101 34 104 30 4 -3 20 -49 37 -101z m-272 -114 c23 -153 29 -148 -155 -144
l-135 3 -8 37 c-4 20 -9 67 -10 104 l-3 67 140 31 c77 18 143 30 147 27 3 -3
14 -59 24 -125z m-1143 90 c65 -13 121 -27 126 -32 4 -5 1 -50 -7 -100 l-14
-92 -121 -4 c-67 -2 -130 -1 -139 4 -22 11 -23 45 -3 158 8 47 15 86 15 88 0
5 28 0 143 -22z m410 -52 c27 -6 27 -6 27 -90 l0 -84 -141 0 -141 0 5 23 c3
12 9 48 12 80 11 84 20 90 124 83 47 -4 98 -9 114 -12z m362 -34 c9 -28 18
-72 18 -98 l2 -47 -110 -3 c-60 -2 -129 0 -151 3 l-42 6 -1 57 c0 32 3 71 7
87 10 35 34 41 174 44 l86 1 17 -50z m-991 -222 c14 -66 48 -279 45 -282 -11
-11 -252 -106 -256 -102 -12 12 -75 176 -88 231 -15 62 -20 157 -8 168 3 4 73
7 154 7 146 0 149 0 153 -22z m314 7 c3 -3 8 -55 10 -115 4 -98 3 -110 -12
-110 -10 0 -58 -12 -108 -26 -70 -20 -92 -23 -98 -14 -11 18 -50 205 -50 239
0 15 3 31 7 35 8 8 242 0 251 -9z m243 5 l99 0 0 -94 c0 -54 -4 -98 -10 -101
-19 -12 -234 -23 -252 -14 -15 8 -18 25 -18 109 0 106 3 113 54 105 16 -3 73
-5 127 -5z m806 -5 c8 -3 10 -20 7 -57 -5 -49 -41 -214 -50 -229 -2 -4 -46 3
-96 16 -51 13 -105 26 -119 29 l-27 6 3 111 c2 113 6 124 39 131 24 4 227 -2
243 -7z m-337 -106 l0 -111 -92 7 c-206 16 -211 17 -220 50 -4 17 -5 60 -1 98
l6 67 153 0 154 0 0 -111z m657 95 c14 -37 -34 -267 -73 -349 -15 -33 -20 -36
-46 -31 -17 3 -68 24 -114 45 -76 36 -84 42 -79 63 3 13 16 78 30 146 14 68
27 128 30 133 4 5 60 9 126 9 100 0 121 -3 126 -16z m-1028 -250 c7 -7 10
-130 3 -141 -4 -7 -45 -17 -92 -22 -134 -17 -125 -20 -144 54 -27 106 -29 102
72 110 48 3 92 8 97 10 10 4 57 -4 64 -11z m261 -4 c25 -6 55 -12 68 -15 17
-4 22 -12 22 -38 0 -44 -29 -127 -43 -127 -7 0 -65 7 -129 17 l-118 16 0 72
c0 39 3 75 7 78 10 10 142 8 193 -3z m-555 -97 c11 -43 20 -82 20 -87 0 -7
-144 -55 -171 -56 -12 0 -88 170 -79 178 6 6 162 40 191 41 17 1 23 -10 39
-76z m835 41 c52 -14 97 -28 99 -30 2 -2 -13 -42 -34 -89 -43 -97 -43 -97
-137 -61 -35 14 -71 27 -82 31 -20 6 -19 21 10 120 11 39 20 55 32 55 9 0 60
-12 112 -26z m-1085 -118 c21 -47 38 -88 37 -93 0 -10 -170 -103 -188 -103
-29 0 -139 154 -132 186 2 9 24 25 51 35 26 10 68 28 95 39 86 35 94 31 137
-64z m1453 -20 c5 -5 -126 -179 -139 -184 -12 -5 -159 82 -159 94 0 6 18 50
40 97 l40 85 107 -44 c58 -24 108 -46 111 -48z m-908 -127 l0 -110 -47 3 c-46
3 -49 5 -78 54 -36 59 -61 131 -51 141 8 8 82 20 139 22 l37 1 0 -111z m194
96 c54 -7 100 -16 103 -18 2 -3 -17 -48 -44 -101 -47 -94 -48 -96 -83 -96 -19
0 -52 3 -72 6 l-38 7 0 102 c0 56 3 105 7 108 8 9 11 9 127 -8z m-394 -117
c28 -56 47 -105 43 -109 -5 -3 -30 -14 -57 -23 l-50 -16 -27 26 c-44 43 -124
164 -113 173 8 8 128 49 147 50 4 1 30 -45 57 -101z m663 50 c26 -11 47 -26
47 -32 0 -6 -30 -51 -67 -99 -72 -96 -65 -93 -151 -56 l-42 18 13 33 c8 18 30
64 48 101 34 68 34 68 69 62 19 -4 56 -16 83 -27z m-861 -124 l72 -96 -34 -29
c-63 -52 -94 -43 -233 70 -58 48 -65 56 -50 66 72 43 150 84 160 84 7 1 45
-42 85 -95z m1098 -1 c13 -13 10 -19 -25 -50 -62 -54 -156 -113 -180 -113 -12
0 -33 12 -47 28 l-26 27 75 92 76 93 56 -31 c31 -18 63 -38 71 -46z m-455
-108 c43 -14 100 -38 127 -53 44 -25 46 -28 31 -44 -52 -57 -391 -89 -575 -54
-92 18 -188 54 -188 70 0 25 109 71 241 101 99 23 264 14 364 -20z"/>
<path d="M577 2753 c-19 -49 -40 -112 -47 -141 -19 -82 -11 -86 131 -70 101
11 202 13 279 5 28 -2 33 15 44 163 l7 85 -43 23 c-39 20 -57 22 -189 22
l-147 0 -35 -87z m169 42 c9 -21 -23 -167 -38 -177 -14 -9 -98 0 -111 11 -11
11 24 140 46 169 14 18 96 16 103 -3z m157 4 c35 -10 37 -12 37 -53 0 -24 -3
-64 -6 -90 -7 -45 -7 -46 -44 -46 -20 0 -59 3 -85 7 l-47 6 7 61 c12 106 15
115 44 119 47 7 56 7 94 -4z"/>
<path d="M4064 2830 c-74 -4 -109 -11 -135 -26 -33 -20 -34 -23 -32 -75 2 -30
6 -85 10 -124 l8 -70 45 5 c56 6 122 5 271 -5 73 -5 118 -4 122 2 7 11 -46
221 -63 253 -14 26 -62 50 -97 48 -15 0 -73 -4 -129 -8z m156 -35 c23 -12 33
-29 50 -81 28 -92 27 -102 -13 -109 -19 -4 -47 -5 -63 -3 -27 3 -29 8 -46 78
-23 98 -22 109 5 120 31 12 34 12 67 -5z m-101 -93 c8 -45 12 -85 9 -88 -3 -3
-41 -8 -84 -11 -67 -5 -79 -3 -91 13 -17 24 -18 160 0 168 6 2 44 4 82 3 l70
-2 14 -83z"/>
<path d="M795 2501 c-16 -5 -91 -6 -165 -3 l-135 5 -24 -207 c-13 -114 -21
-209 -18 -212 3 -3 37 6 77 20 50 18 91 26 138 26 43 0 89 8 127 21 65 23 175
37 175 23 0 -5 -24 -15 -52 -22 -29 -6 -83 -28 -120 -47 -40 -21 -104 -42
-164 -55 -54 -11 -114 -29 -134 -39 l-35 -18 3 -74 c4 -113 42 -319 58 -319 3
0 34 20 68 45 60 42 148 75 204 75 16 0 28 10 40 32 31 60 76 94 146 112 113
28 117 17 11 -37 -52 -27 -88 -55 -121 -92 -38 -45 -57 -58 -109 -75 -109 -36
-232 -137 -219 -177 16 -47 185 -383 192 -383 5 0 27 26 50 58 49 69 80 99
150 141 72 43 87 58 110 111 26 60 124 150 207 189 36 17 65 37 65 45 0 11
-64 108 -107 161 -35 44 -69 112 -115 229 -38 96 -58 136 -69 136 -13 0 -16 8
-12 43 3 23 -2 73 -11 110 -9 38 -16 87 -16 110 0 65 -9 71 -92 74 -40 1 -86
-2 -103 -6z m132 -43 c10 -13 33 -137 33 -176 0 -17 -11 -20 -82 -27 -46 -4
-96 -8 -113 -9 l-30 -1 -3 75 c-4 95 4 137 26 143 40 11 160 7 169 -5z m-246
-14 c14 -18 25 -222 12 -240 -8 -12 -172 -34 -178 -24 -2 3 0 51 5 105 5 55 9
110 10 123 0 43 121 72 151 36z m316 -326 c15 -20 53 -132 53 -156 0 -27 -4
-29 -79 -41 -35 -6 -82 -22 -106 -36 -56 -32 -73 -32 -81 3 -3 15 -12 50 -20
79 -8 28 -11 59 -8 67 13 33 140 91 210 95 12 0 26 -5 31 -11z m-248 -194 c8
-50 11 -98 8 -107 -6 -16 -202 -86 -212 -76 -12 12 -26 122 -23 181 l3 63 50
17 c29 10 73 17 105 15 l55 -2 14 -91z m411 -153 c22 -39 43 -76 45 -84 4 -8
-20 -33 -62 -67 -37 -29 -84 -75 -103 -102 -19 -26 -40 -48 -46 -48 -18 0 -42
33 -79 106 -49 97 -47 121 15 177 44 40 134 83 177 86 7 1 30 -30 53 -68z
m-312 -143 c25 -32 113 -202 109 -212 -3 -6 -55 -47 -117 -90 -88 -61 -114
-76 -121 -65 -5 8 -9 18 -9 22 0 5 -11 32 -24 60 -13 29 -34 80 -46 115 l-23
63 24 25 c27 29 85 61 144 80 51 16 51 16 63 2z"/>
<path d="M3922 2492 c-15 -10 -53 -209 -54 -284 -1 -32 -7 -53 -19 -64 -10 -9
-30 -48 -44 -88 -53 -143 -65 -169 -113 -234 -58 -81 -127 -191 -121 -195 2
-2 40 -22 84 -46 79 -41 148 -104 176 -159 28 -57 62 -93 128 -136 50 -32 85
-66 131 -126 l63 -83 89 184 c49 101 91 194 94 206 5 17 -4 35 -31 68 -29 36
-60 57 -143 97 -84 40 -122 65 -177 118 -38 37 -87 73 -107 81 -21 7 -38 17
-38 21 0 4 17 8 38 8 55 0 135 -50 164 -102 22 -41 26 -43 80 -50 63 -8 121
-34 187 -84 24 -19 47 -31 52 -28 24 14 72 336 56 377 -8 22 -72 47 -173 68
-60 12 -114 30 -151 51 -31 18 -77 37 -102 44 -25 6 -47 17 -49 24 -6 17 96 4
159 -21 34 -13 61 -17 96 -12 39 4 67 -1 141 -27 51 -18 95 -30 98 -28 2 3 -2
61 -10 129 -8 68 -17 159 -21 202 -9 93 -11 95 -154 81 -53 -6 -116 -6 -141
-2 -79 14 -175 19 -188 10z m222 -55 c16 -19 18 -33 12 -111 -3 -49 -8 -91
-11 -94 -2 -2 -34 1 -70 8 -37 7 -87 10 -111 6 l-45 -6 7 56 c3 31 12 79 18
107 11 50 13 52 51 58 65 10 128 0 149 -24z m200 -23 c20 -34 24 -58 25 -152
1 -73 -2 -94 -14 -98 -26 -11 -155 17 -164 34 -5 10 -5 62 0 117 4 55 8 106 9
114 0 10 15 12 66 9 52 -3 68 -8 78 -24z m-354 -315 c42 -11 91 -29 108 -40
29 -17 32 -24 32 -66 0 -58 -15 -117 -36 -137 -13 -14 -19 -13 -52 9 -39 26
-137 55 -184 55 -34 0 -36 15 -9 91 27 77 43 109 54 109 6 0 45 -9 87 -21z
m311 -101 c69 -20 73 -31 58 -157 -7 -65 -17 -111 -23 -111 -6 0 -58 14 -114
32 l-104 32 5 35 c5 42 26 150 32 169 6 15 94 16 146 0z m-417 -203 c64 -30
126 -94 126 -130 0 -34 -61 -154 -95 -185 l-27 -25 -21 30 c-42 57 -100 116
-148 147 l-48 31 26 51 c14 28 37 66 50 84 30 39 48 39 137 -3z m297 -214 c80
-48 91 -68 72 -124 -23 -68 -91 -207 -101 -207 -5 0 -33 18 -63 39 -30 22 -77
55 -106 73 -31 19 -53 40 -53 51 0 22 19 60 72 145 37 58 42 62 77 62 26 0 58
-12 102 -39z"/>
<path d="M1291 1559 c-81 -41 -162 -118 -203 -195 -22 -41 -53 -78 -95 -112
-80 -67 -104 -100 -146 -198 l-35 -81 176 -206 c98 -113 180 -206 184 -206 4
-1 12 16 17 37 51 190 53 195 120 272 36 41 71 81 77 87 7 7 18 39 25 70 20
93 55 151 145 240 46 46 84 87 84 92 0 16 -253 231 -271 231 -8 0 -44 -14 -78
-31z m142 -99 c53 -45 99 -85 103 -91 3 -6 -23 -40 -58 -77 -46 -47 -77 -93
-107 -155 l-43 -87 -40 22 c-51 29 -198 200 -198 230 0 22 56 111 89 142 27
26 137 95 152 96 3 0 49 -36 102 -80z m-292 -282 c35 -40 85 -97 111 -125 l49
-53 -54 -72 c-61 -82 -87 -129 -97 -173 -8 -41 -31 -42 -76 -3 -45 40 -192
234 -200 265 -16 61 122 233 187 233 10 0 45 -33 80 -72z"/>
<path d="M3428 1513 c-46 -36 -106 -87 -135 -112 l-52 -46 83 -80 c65 -62 91
-97 120 -156 21 -42 40 -95 43 -119 5 -36 16 -53 69 -105 74 -74 127 -176 144
-278 l12 -67 37 32 c20 18 51 51 69 73 17 22 41 51 54 65 43 47 194 225 202
237 10 17 -63 170 -103 215 -17 20 -54 54 -82 75 -36 27 -61 58 -86 106 -22
41 -57 87 -89 117 -62 55 -151 110 -182 110 -12 0 -59 -30 -104 -67z m185 0
c87 -48 195 -188 180 -232 -19 -53 -185 -231 -216 -231 -7 0 -29 28 -46 62
-44 83 -68 117 -130 183 -28 31 -51 61 -49 66 7 20 193 169 211 169 10 0 33
-8 50 -17z m280 -309 c64 -50 111 -116 121 -170 6 -30 2 -42 -32 -90 -53 -75
-200 -234 -217 -234 -7 0 -26 32 -41 72 -16 39 -50 100 -76 136 -27 36 -48 71
-48 79 0 8 21 37 48 66 88 97 176 187 181 187 3 0 32 -21 64 -46z"/>
<path d="M1643 1285 c-87 -74 -154 -208 -173 -345 -7 -46 -16 -69 -39 -96 -41
-47 -78 -121 -97 -196 -14 -54 -15 -75 -4 -148 l12 -86 122 -70 c119 -69 307
-149 416 -178 30 -8 89 -24 130 -35 41 -12 76 -21 77 -21 12 0 -5 30 -46 83
-108 139 -151 253 -151 407 0 198 78 378 215 495 30 25 55 50 55 53 0 14 -415
172 -452 172 -14 0 -43 -16 -65 -35z m186 -81 c72 -36 131 -69 131 -73 0 -5
-24 -46 -54 -92 -39 -59 -62 -110 -81 -174 -14 -49 -30 -94 -35 -99 -11 -11
-9 -11 -170 77 l-115 63 0 59 c1 80 32 144 115 234 36 39 68 71 71 71 4 0 66
-30 138 -66z m-192 -418 c65 -36 125 -69 133 -74 13 -8 13 -14 -4 -42 -30 -53
-56 -150 -63 -237 -3 -45 -10 -87 -14 -95 -10 -16 -83 20 -234 115 l-100 63 0
65 c0 52 6 77 32 129 37 76 100 153 119 146 7 -3 66 -34 131 -70z m193 -331
c0 -35 7 -98 16 -139 17 -77 15 -106 -10 -106 -19 0 -46 80 -53 160 -6 74 10
150 32 150 12 0 15 -15 15 -65z"/>
<path d="M3080 1284 c-52 -20 -151 -55 -219 -79 -68 -25 -126 -47 -129 -50 -4
-3 29 -40 71 -82 67 -65 85 -91 126 -177 64 -137 89 -263 74 -376 -13 -96 -68
-218 -143 -321 -28 -36 -50 -71 -50 -76 0 -11 60 0 176 31 232 61 530 211 569
286 10 19 15 57 15 107 -1 90 -21 151 -89 258 -26 41 -48 91 -57 133 -24 102
-53 182 -89 237 -33 53 -129 145 -149 144 -6 0 -54 -16 -106 -35z m194 -85
c60 -67 108 -166 114 -234 l4 -53 -43 -28 c-63 -40 -227 -124 -243 -124 -9 0
-17 18 -21 50 -8 57 -66 182 -119 255 -20 27 -36 55 -36 60 0 6 60 40 133 77
94 47 137 63 148 57 9 -5 37 -31 63 -60z m190 -431 c61 -91 76 -129 76 -200 0
-42 -4 -50 -40 -81 -50 -43 -276 -161 -295 -154 -9 4 -15 35 -20 104 -5 79
-13 114 -40 180 -25 61 -31 84 -22 92 36 29 253 139 278 141 3 0 31 -37 63
-82z m-361 -333 c13 -113 -15 -235 -54 -235 -20 0 -21 34 -5 109 9 42 16 105
16 139 0 55 2 63 18 60 13 -3 19 -19 25 -73z"/>
<path d="M2318 1116 c-74 -21 -169 -70 -216 -111 -37 -32 -41 -39 -30 -54 12
-14 11 -14 -4 -3 -15 12 -21 8 -48 -30 -45 -62 -65 -104 -84 -179 -31 -126
-16 -267 42 -373 35 -64 148 -180 168 -172 8 3 13 2 10 -3 -16 -25 148 -88
254 -97 177 -16 356 77 462 240 95 147 105 346 27 512 -40 86 -155 194 -258
242 -70 34 -84 37 -176 39 -61 1 -118 -3 -147 -11z m206 -56 c189 -31 345
-205 365 -408 15 -149 -22 -254 -126 -360 -111 -112 -264 -162 -399 -129 -157
39 -269 118 -321 227 -64 136 -66 144 -60 239 4 49 13 109 21 132 8 24 12 47
9 52 -3 6 -1 7 4 4 6 -4 17 8 24 25 21 50 119 142 190 177 98 48 181 60 293
41z"/>
<path d="M2350 1009 c-109 -21 -222 -112 -272 -219 -48 -102 -52 -253 -9 -353
62 -143 263 -253 425 -232 118 16 252 114 309 227 152 300 -117 643 -453 577z
m276 -55 c23 -11 36 -26 42 -48 8 -29 6 -54 -13 -193 -7 -46 -5 -54 17 -76 15
-15 47 -30 81 -38 64 -14 68 -22 35 -74 l-23 -35 -132 0 -132 0 -7 -37 c-17
-89 -71 -156 -138 -168 -66 -13 -78 24 -17 54 42 22 69 66 72 122 3 35 -15 79
-31 79 -5 0 -11 9 -15 20 -6 20 8 54 32 78 14 15 16 15 103 -17 52 -19 120
-28 120 -15 0 3 -9 18 -21 32 -19 25 -20 35 -14 119 6 87 6 91 -14 98 -38 12
-61 -4 -73 -51 -15 -54 -34 -57 -72 -12 -35 42 -33 56 12 102 73 76 122 91
188 60z m-361 -56 c3 -18 5 -133 3 -256 -3 -241 -4 -245 -58 -240 -33 4 -37
28 -39 195 -1 86 -6 147 -16 175 -15 45 -15 72 0 85 4 4 5 2 1 -4 -11 -19 9
-15 26 5 8 9 19 29 26 45 17 39 49 36 57 -5z m435 -471 c0 -29 -113 -106 -157
-107 -31 0 14 53 71 85 66 37 86 42 86 22z"/>
</g>
</svg>
